<svg viewBox="0 0 20 20" width="55" height="55" xmlns="http://www.w3.org/2000/svg" class="ng-element" preserveAspectRatio="none">
 <g>
  <g id="svg_1">
   <g id="svg_2">
    <path id="svg_3" fill=" rgba(255, 255, 255, 0.5)" d="m51.1,9.1l-4.3,-1.4l0,-3.8c0,-2.1 -1.8,-3.9 -4,-3.9l-0.2,0c-2.2,0 -3.9,1.8 -3.9,3.9l0,1.1l-8.7,-2.8c-0.6,-0.2 -1.3,-0.3 -2,-0.3c-0.1,0 -0.2,0 -0.2,0c-0.8,0 -1.5,0.1 -2.3,0.3l-21.1,6.9c-3.3,1.1 -5.2,4.7 -4.1,8l0.2,0.7c0.8,2.3 2.8,4 5.2,4.3c-0.3,0.8 -0.5,1.6 -0.5,2.4l0,18.5c0,3.3 2.6,5.9 5.8,5.9l32.3,0c3.2,0 5.8,-2.6 5.8,-5.9l0,-18.4c0,-0.8 -0.2,-1.7 -0.5,-2.4c0,0 0.1,0 0.1,0c2.8,0 5.2,-1.8 6.1,-4.4l0.2,-0.7c1.2,-3.3 -0.6,-6.9 -3.9,-8zm-10.4,-5.2c0,-1.1 0.9,-1.9 1.9,-1.9l0.2,0c1.1,0 1.9,0.9 1.9,1.9l0,3.1l-4,-1.3l0,-1.8zm-19.5,36.9c0,-1.1 0.9,-1.9 2,-1.9l8,0c1.1,0 2,0.9 2,2l0,6l-12,0l0,-6.1zm26,2.3c0,2.1 -1.7,3.9 -3.8,3.9l-8.3,0c0.1,-0.1 0.1,-0.3 0.1,-0.3l0,-5.9c0,-2.1 -1.9,-3.8 -4.1,-3.8l-7.9,0c-2.2,0 -4,1.7 -4,3.8l0,5.9c0,0 0,0.1 0.1,0.3l-8.3,0c-2.1,0 -3.8,-1.7 -3.8,-3.9l0,-18.5c0,-1 0.4,-1.9 1,-2.6c0.1,0 0.2,0 0.3,-0.1l19.1,-6.3l18,5.9c1,0.7 1.5,1.8 1.5,3.1l0,18.5l0.1,0zm6,-26.6l-0.2,0.7c-0.6,1.8 -2.3,3 -4.1,3c-0.5,0 -0.9,-0.1 -1.4,-0.2l-19.8,-6.5l-19.7,6.5c-0.4,0.1 -0.9,0.2 -1.4,0.2c-1.9,0 -3.6,-1.2 -4.2,-3l-0.2,-0.7c-0.7,-2.3 0.5,-4.7 2.8,-5.5l21.1,-6.9c0.4,-0.1 0.9,-0.2 1.4,-0.2l0.3,0l0.2,0c0.5,0 0.9,0.1 1.4,0.2l21,6.9c2.3,0.8 3.6,3.2 2.8,5.5z"/>
   </g>
  </g>
  <g id="svg_4"/>
 </g>
</svg>