<svg width="30" height="30" xmlns="http://www.w3.org/2000/svg" preserveAspectRatio="none" class="ng-element">
    <g stroke="null" id="svg_2">
     <path style="fill: var(--home-icon-colour)" stroke="null" d="m26.982565,6.969114l-2.202906,-0.726575l0,-1.972133c0,-1.089863 -0.922147,-2.024031 -2.049215,-2.024031l-0.102461,0c-1.127068,0 -1.997985,0.934168 -1.997985,2.024031l0,0.570881l-4.457042,-1.45315c-0.307382,-0.103796 -0.665995,-0.155695 -1.024607,-0.155695c-0.05123,0 -0.102461,0 -0.102461,0c-0.409843,0 -0.768456,0.051898 -1.178299,0.155695l-10.809609,3.580978c-1.690602,0.570881 -2.663979,2.439217 -2.100445,4.151859l0.102461,0.363288c0.409843,1.193659 1.43445,2.075929 2.663979,2.231624c-0.153691,0.415186 -0.256152,0.830372 -0.256152,1.245558l0,9.601173c0,1.712642 1.33199,3.061996 2.971362,3.061996l16.547411,0c1.639372,0 2.971362,-1.349354 2.971362,-3.061996l0,-9.549275c0,-0.415186 -0.102461,-0.88227 -0.256152,-1.245558c0,0 0.05123,0 0.05123,0c1.43445,0 2.663979,-0.934168 3.125053,-2.283522l0.102461,-0.363288c0.614764,-1.712642 -0.307382,-3.580978 -1.997985,-4.151859zm-5.327959,-2.698708c0,-0.570881 0.461073,-0.986066 0.973377,-0.986066l0.102461,0c0.563534,0 0.973377,0.467084 0.973377,0.986066l0,1.608845l-2.049215,-0.674677l0,-0.934168zm-9.989923,19.150448c0,-0.570881 0.461073,-0.986066 1.024607,-0.986066l4.09843,0c0.563534,0 1.024607,0.467084 1.024607,1.037965l0,3.113894l-6.147645,0l0,-3.165792zm13.319897,1.193659c0,1.089863 -0.870916,2.024031 -1.946754,2.024031l-4.252121,0c0.05123,-0.051898 0.05123,-0.155695 0.05123,-0.155695l0,-3.061996c0,-1.089863 -0.973377,-1.972133 -2.100445,-1.972133l-4.047199,0c-1.127068,0 -2.049215,0.88227 -2.049215,1.972133l0,3.061996c0,0 0,0.051898 0.05123,0.155695l-4.252121,0c-1.075838,0 -1.946754,-0.88227 -1.946754,-2.024031l0,-9.601173c0,-0.518982 0.204921,-0.986066 0.512304,-1.349354c0.05123,0 0.102461,0 0.153691,-0.051898l9.785001,-3.269589l9.221467,3.061996c0.512304,0.363288 0.768456,0.934168 0.768456,1.608845l0,9.601173l0.05123,0zm3.073822,-13.80493l-0.102461,0.363288c-0.307382,0.934168 -1.178299,1.556947 -2.100445,1.556947c-0.256152,0 -0.461073,-0.051898 -0.717225,-0.103796l-10.143614,-3.373385l-10.092384,3.373385c-0.204921,0.051898 -0.461073,0.103796 -0.717225,0.103796c-0.973377,0 -1.844293,-0.622779 -2.151676,-1.556947l-0.102461,-0.363288c-0.358613,-1.193659 0.256152,-2.439217 1.43445,-2.854403l10.809609,-3.580978c0.204921,-0.051898 0.461073,-0.103796 0.717225,-0.103796l0.153691,0l0.102461,0c0.256152,0 0.461073,0.051898 0.717225,0.103796l10.758378,3.580978c1.178299,0.415186 1.844293,1.660743 1.43445,2.854403z" id="svg_3"/>
    </g>
</svg>