<svg width="30" height="30" xmlns="http://www.w3.org/2000/svg" preserveAspectRatio="none" class="ng-element">
   <g stroke="null" id="svg_1">
    <polygon  style="fill: var(--shares-icon-colour)" stroke="null" points="4.872931003570557,20.2299190685153 12.159470558166504,11.604047410190105 17.361316680908203,16.676951996982098 28.18827247619629,4.093064896762371 27.353605270385742,3.483543984591961 17.361316680908203,15.257310502231121 12.159470558166504,10.184405915439129 4.872931003570557,18.605815522372723 4.872931003570557,2.7737227603793144 3.8325626850128174,2.7737227603793144 3.8325626850128174,6.8320490047335625 1.7518246173858643,6.8320490047335625 1.7518246173858643,7.846629731357098 3.8325626850128174,7.846629731357098 3.8325626850128174,11.908809296786785 1.7518246173858643,11.908809296786785 1.7518246173858643,12.92339002341032 3.8325626850128174,12.92339002341032 3.8325626850128174,16.98171579092741 1.7518246173858643,16.98171579092741 1.7518246173858643,17.99629556387663 3.8325626850128174,17.99629556387663 3.8325626850128174,22.058478944003582 1.7518246173858643,22.058478944003582 1.7518246173858643,23.073062531650066 3.8325626850128174,23.073062531650066 3.8325626850128174,27.131389252841473 27.768964767456055,27.131389252841473 27.768964767456055,26.116803757846355 4.872931003570557,26.116803757846355 " id="svg_2"/>
   </g>
</svg>