<svg viewBox="0 0 20 20" width="30" height="30" xmlns="http://www.w3.org/2000/svg" preserveAspectRatio="none" class="ng-element">
 <g>
  <g stroke="null" id="svg_1">
   <g stroke="null" id="svg_2">
    <path style="fill: var(--bank-icon-colour)" stroke="null" d="m12.06024,11.236042l-3.035171,0l0,2.920317l3.035171,0l0,-2.920317zm-0.758793,2.190238l-1.517585,0l0,-1.460159l1.517585,0l0,1.460159zm4.552756,-2.190238l-3.035171,0l0,2.920317l3.035171,0l0,-2.920317zm-0.758793,2.190238l-1.517585,0l0,-1.460159l1.517585,0l0,1.460159zm3.035171,-8.395911l0,-2.190238l-16.314043,0l0,2.190238l-1.517585,0l0,5.110555l1.517585,0l0,7.665832l16.314043,0l0,-7.665832l1.517585,0l0,-5.110555l-1.517585,0zm-15.55525,-1.460159l14.796458,0l0,1.460159l-14.796458,0l0,-1.460159zm4.932153,13.506466l-2.655774,0l0,-5.110555l2.655774,0l0,5.110555zm9.864305,0l-9.105512,0l0,-5.840634l-4.17336,0l0,5.840634l-1.517585,0l0,-6.935753l14.796458,0l0,6.935753zm1.517585,-7.665832l-17.831628,0l0,-3.650396l17.831628,0l0,3.650396z" id="svg_3"/>
   </g>
  </g>
 </g>
</svg>