<svg width="51" height="51" xmlns="http://www.w3.org/2000/svg" class="ng-element" preserveAspectRatio="none">
 <g>
  <g id="svg_1">
   <g id="svg_2">
    <path id="svg_3" fill=" rgba(255, 255, 255, 0.5)" d="m31,23l-8,0l0,8l8,0l0,-8zm-2,6l-4,0l0,-4l4,0l0,4zm12,-6l-8,0l0,8l8,0l0,-8zm-2,6l-4,0l0,-4l4,0l0,4zm8,-23l0,-6l-43,0l0,6l-4,0l0,14l4,0l0,21l43,0l0,-21l4,0l0,-14l-4,0zm-41,-4l39,0l0,4l-39,0l0,-4zm13,37l-7,0l0,-14l7,0l0,14zm26,0l-24,0l0,-16l-11,0l0,16l-4,0l0,-19l39,0l0,19zm4,-21l-47,0l0,-10l47,0l0,10z"/>
   </g>
  </g>
  <g id="svg_4"/>
 </g>
</svg>