<svg width="30" height="30" xmlns="http://www.w3.org/2000/svg" class="ng-element" preserveAspectRatio="none">
    <g stroke="null" id="svg_2">
        <path stroke="null" fill=" var(--bank-icon-colour)" id="svg_3" d="m18.018224,16.561827l-4.480549,0l0,4.077112l4.480549,0l0,-4.077112zm-1.120138,3.057834l-2.240274,0l0,-2.038557l2.240274,0l0,2.038557zm6.720823,-3.057834l-4.480549,0l0,4.077112l4.480549,0l0,-4.077112zm-1.120138,3.057834l-2.240274,0l0,-2.038557l2.240274,0l0,2.038557zm4.480549,-11.721696l0,-3.057834l-24.082951,0l0,3.057834l-2.240274,0l0,7.134946l2.240274,0l0,10.702418l24.082951,0l0,-10.702418l2.240274,0l0,-7.134946l-2.240274,0zm-22.962814,-2.038557l21.842677,0l0,2.038557l-21.842677,0l0,-2.038557zm7.280893,18.856642l-3.92048,0l0,-7.134946l3.92048,0l0,7.134946zm14.561784,0l-13.441647,0l0,-8.154224l-6.160755,0l0,8.154224l-2.240274,0l0,-9.683141l21.842677,0l0,9.683141l-0.000001,0zm2.240274,-10.702418l-26.323225,0l0,-5.096389l26.323225,0l0,5.096389z"/>
    </g>
</svg>