<svg viewBox="0 0 24 24" width="16" height="16" xmlns="http://www.w3.org/2000/svg" class="ng-element" preserveAspectRatio="none">
 <g>
  <g id="svg_1">
   <path id="svg_2" fill=" rgba(255, 255, 255, 0.5)" d="m11.8,10.9c-2.27,-0.59 -3,-1.2 -3,-2.15c0,-1.09 1.01,-1.85 2.7,-1.85c1.78,0 2.44,0.85 2.5,2.1l2.21,0c-0.07,-1.72 -1.12,-3.3 -3.21,-3.81l0,-2.19l-3,0l0,2.16c-1.94,0.42 -3.5,1.68 -3.5,3.61c0,2.31 1.91,3.46 4.7,4.13c2.5,0.6 3,1.48 3,2.41c0,0.69 -0.49,1.79 -2.7,1.79c-2.06,0 -2.87,-0.92 -2.98,-2.1l-2.2,0c0.12,2.19 1.76,3.42 3.68,3.83l0,2.17l3,0l0,-2.15c1.95,-0.37 3.5,-1.5 3.5,-3.55c0,-2.84 -2.43,-3.81 -4.7,-4.4z"/>
  </g>
 </g>
</svg>