<svg width="24" height="24" xmlns="http://www.w3.org/2000/svg" class="ng-element" preserveAspectRatio="none">

 <g>
  <title>background</title>
  <rect fill="none" id="canvas_background" height="402" width="582" y="-1" x="-1"/>
 </g>
 <g>
  <title>Layer 1</title>
  <g id="svg_1">
   <g id="svg_2">
    <path id="svg_3" fill=" rgba(255, 255, 255, 0.5)" d="m52.1,20l-3.6,0l3.2,-3.2l-15.6,-15.6l-2.7,2.7l-6.3,-3.9l-12.3,20l-11.9,0c-1.6,0 -2.9,1.3 -2.9,2.9l0,28.2c0,1.6 1.3,2.9 2.9,2.9l49.2,0c1.6,0 2.9,-1.3 2.9,-2.9l0,-28.2c0,-1.6 -1.3,-2.9 -2.9,-2.9zm-16,-15.9l12.7,12.7l-3.1,3.2l-25.5,0l15.9,-15.9zm-8.3,-1.3l4.1,2.6l-14.6,14.6l-0.1,0l10.6,-17.2zm25.2,37.2l-15,0c-0.6,0 -1,-0.4 -1,-1l0,-6c0,-0.6 0.4,-1 1,-1l15,0l0,8zm0,-10l-15,0c-1.7,0 -3,1.3 -3,3l0,6c0,1.7 1.3,3 3,3l15,0l0,9.1c0,0.5 -0.4,0.9 -0.9,0.9l-49.2,0c-0.5,0 -0.9,-0.4 -0.9,-0.9l0,-28.2c0,-0.5 0.4,-0.9 0.9,-0.9l49.2,0c0.5,0 0.9,0.4 0.9,0.9l0,7.1zm-13.2,7.6c1.9,0 1.9,-3 0,-3s-1.9,3 0,3z"/>
   </g>
  </g>
  <g id="svg_4"/>
 </g>
</svg>