<svg width="30" height="30" xmlns="http://www.w3.org/2000/svg" preserveAspectRatio="none" class="ng-element">
 <g>
  <title>background</title>
  <rect x="-1" y="-1" width="32" height="32" id="canvas_background" fill="none"/>
 </g>

 <g>
  <title>Layer 1</title>
  <g stroke="null" id="svg_1">
   <g stroke="null" id="svg_2">
    <path stroke="null" d="m27.078316,11.675686l-1.767805,0l1.571382,-1.610639l-7.660488,-7.851863l-1.325854,1.358976l-3.093658,-1.962966l-6.04,10.066491l-5.843577,0c-0.785691,0 -1.424065,0.654322 -1.424065,1.459641l0,14.193753c0,0.805319 0.638374,1.459641 1.424065,1.459641l24.159999,0c0.785691,0 1.424065,-0.654322 1.424065,-1.459641l0,-14.193753c0,-0.805319 -0.638374,-1.459641 -1.424065,-1.459641zm-7.85691,-8.00286l6.236423,6.392222l-1.522276,1.610639l-12.521951,0l7.807805,-8.00286zm-4.075772,-0.654322l2.013333,1.308644l-7.169431,7.348539l-0.049106,0l5.205203,-8.657182zm12.374634,18.723674l-7.365853,0c-0.294634,0 -0.491057,-0.20133 -0.491057,-0.503325l0,-3.019947c0,-0.301995 0.196423,-0.503325 0.491057,-0.503325l7.365853,0l0,4.026596zm0,-5.033246l-7.365853,0c-0.834797,0 -1.473171,0.654322 -1.473171,1.509974l0,3.019947c0,0.855652 0.638374,1.509974 1.473171,1.509974l7.365853,0l0,4.580253c0,0.251662 -0.196423,0.452992 -0.441951,0.452992l-24.159999,0c-0.245528,0 -0.441951,-0.20133 -0.441951,-0.452992l0,-14.193753c0,-0.251662 0.196423,-0.452992 0.441951,-0.452992l24.159999,0c0.245528,0 0.441951,0.20133 0.441951,0.452992l0,3.573604zm-6.481951,3.825267c0.933008,0 0.933008,-1.509974 0,-1.509974s-0.933008,1.509974 0,1.509974z" fill=" rgba(255, 255, 255, 0.5)" id="svg_3"/>
   </g>
  </g>
  <g id="svg_4"/>
 </g>
</svg>